HIERARCHY
ROOT Hips
{
	OFFSET -1.602300 6.242603 43.997101
	CHANNELS 6 Xposition Yposition Zposition Zrotation Xrotation Yrotation
	JOINT Chest
	{
		OFFSET -0.204900 1.598101 7.917301
		CHANNELS 6 Xposition Yposition Zposition Zrotation Xrotation Yrotation
		JOINT Chest2
		{
			OFFSET 0.000000 0.000000 3.404099
			CHANNELS 6 Xposition Yposition Zposition Zrotation Xrotation Yrotation
			JOINT Neck
			{
				OFFSET 0.000000 0.000000 7.928600
				CHANNELS 6 Xposition Yposition Zposition Zrotation Xrotation Yrotation
				JOINT Head
				{
					OFFSET 0.000000 0.000000 2.173897
					CHANNELS 6 Xposition Yposition Zposition Zrotation Xrotation Yrotation
					End Site
					{
						OFFSET 0.000000 0.000001 10.404503
					}
				}
			}
			JOINT LeftCollar
			{
				OFFSET 2.833800 -1.396299 4.843300
				CHANNELS 6 Xposition Yposition Zposition Zrotation Xrotation Yrotation
				JOINT LeftShoulder
				{
					OFFSET 4.363600 0.000000 0.000000
					CHANNELS 6 Xposition Yposition Zposition Zrotation Xrotation Yrotation
					JOINT LeftElbow
					{
						OFFSET 0.000000 -0.000001 -10.306900
						CHANNELS 6 Xposition Yposition Zposition Zrotation Xrotation Yrotation
						JOINT LeftWrist
						{
							OFFSET 0.000000 -0.000001 -12.404900
							CHANNELS 6 Xposition Yposition Zposition Zrotation Xrotation Yrotation
							End Site
							{
								OFFSET 0.000000 0.000000 -2.173901
							}
						}
					}
				}
			}
			JOINT RightCollar
			{
				OFFSET -2.354800 -1.897200 5.063099
				CHANNELS 6 Xposition Yposition Zposition Zrotation Xrotation Yrotation
				JOINT RightShoulder
				{
					OFFSET -4.375800 0.000000 0.000000
					CHANNELS 6 Xposition Yposition Zposition Zrotation Xrotation Yrotation
					JOINT RightElbow
					{
						OFFSET 0.000000 -0.000001 -10.005001
						CHANNELS 6 Xposition Yposition Zposition Zrotation Xrotation Yrotation
						JOINT RightWrist
						{
							OFFSET 0.000000 -0.000001 -13.174900
							CHANNELS 6 Xposition Yposition Zposition Zrotation Xrotation Yrotation
							End Site
							{
								OFFSET 0.000000 0.000000 -2.173901
							}
						}
					}
				}
			}
		}
	}
	JOINT LeftHip
	{
		OFFSET 2.240600 0.386800 -2.614101
		CHANNELS 6 Xposition Yposition Zposition Zrotation Xrotation Yrotation
		JOINT LeftKnee
		{
			OFFSET 0.000000 -0.000001 -18.592899
			CHANNELS 6 Xposition Yposition Zposition Zrotation Xrotation Yrotation
			JOINT LeftAnkle
			{
				OFFSET 0.000000 -0.000001 -18.765800
				CHANNELS 6 Xposition Yposition Zposition Zrotation Xrotation Yrotation
				End Site
				{
					OFFSET 0.000000 -8.655000 0.000000
				}
			}
		}
	}
	JOINT RightHip
	{
		OFFSET -2.014900 -0.220900 -2.615898
		CHANNELS 6 Xposition Yposition Zposition Zrotation Xrotation Yrotation
		JOINT RightKnee
		{
			OFFSET 0.000000 -0.000001 -18.633900
			CHANNELS 6 Xposition Yposition Zposition Zrotation Xrotation Yrotation
			JOINT RightAnkle
			{
				OFFSET 0.000000 -0.000001 -18.285101
				CHANNELS 6 Xposition Yposition Zposition Zrotation Xrotation Yrotation
				End Site
				{
					OFFSET 0.000000 -7.524500 0.000000
				}
			}
		}
	}
}
MOTION
Frames: 8
Frame Time: 0.041667
-4.446098 25.853106 8.771599 -0.500006 -0.559218 10.780490 -0.204901 1.598099 7.917310 0.388744 4.402770 -4.746851 -0.000001 0.000002 3.404101 2.380539 -16.765673 -1.714720 -0.000000 0.000006 7.928606 -43.954740 15.008904 16.148717 0.000001 -0.000001 2.173898 -3.629738 0.084003 -3.881465 2.833796 -1.396296 4.843310 33.619888 -6.888520 -19.627599 4.363595 0.000007 -0.000004 -72.328780 -12.198271 -141.028325 -0.000003 0.000001 -10.306898 264.943694 -159.218103 192.442260 0.000011 0.000004 -12.404898 -517.545618 192.167386 -123.391179 -2.354807 -1.897197 5.063107 8.231528 10.862489 -32.030947 -4.375801 0.000006 -0.000016 68.423490 1.655024 162.330961 0.000001 0.000009 -10.005001 -269.635924 -168.220784 -227.360100 -0.000003 0.000006 -13.174891 -149.762921 -148.997203 180.165337 2.240599 0.386798 -2.614103 144.388136 -44.859272 113.591052 0.000001 -0.000003 -18.592896 -106.619028 38.399033 129.443013 -0.000003 0.000001 -18.765797 6.613990 30.832044 18.531118 -2.014897 -0.220899 -2.615898 -116.768313 -0.687788 -91.779499 -0.000002 0.000001 -18.633881 188.942594 23.430566 -176.481010 -0.000006 -0.000006 -18.285086 -8.339428 35.584661 -211.851199
-4.446899 25.857403 8.769215 -0.557418 -0.651588 10.771300 -0.204900 1.598100 7.917310 0.471177 4.536414 -4.760097 -0.000000 0.000001 3.404101 2.395376 -16.789788 -1.715139 -0.000000 0.000001 7.928599 -43.917030 14.934338 16.098440 0.000002 -0.000000 2.173902 -3.696974 0.083923 -3.907415 2.833797 -1.396299 4.843301 33.863583 -7.047457 -19.687452 4.363596 0.000006 -0.000016 -72.520018 -12.454934 -140.699465 -0.000004 0.000000 -10.306894 264.934159 -158.782459 192.613288 0.000008 0.000000 -12.404896 -517.746972 192.073990 -123.509273 -2.354806 -1.897199 5.063102 8.303882 10.872262 -31.980035 -4.375801 0.000006 -0.000012 68.950206 1.443372 162.301755 0.000001 0.000004 -10.004998 -269.029240 -168.145898 -227.325389 -0.000001 0.000004 -13.174891 -149.972321 -148.863590 179.993475 2.240601 0.386805 -2.614100 144.433557 -44.923906 113.569168 0.000000 -0.000002 -18.592892 -106.639894 38.418448 129.449297 -0.000004 -0.000001 -18.765800 6.575777 30.778472 18.757245 -2.014897 -0.220898 -2.615899 -116.706377 -0.674354 -91.727911 -0.000002 0.000002 -18.633886 188.957170 23.421837 -176.466461 -0.000006 -0.000005 -18.285088 -8.359737 35.577038 -211.818660
-4.447099 25.861902 8.765614 -0.613382 -0.752199 10.753324 -0.204901 1.598099 7.917305 0.552208 4.684048 -4.755193 -0.000000 0.000000 3.404102 2.390861 -16.824465 -1.719217 -0.000000 0.000002 7.928601 -43.870267 14.856034 16.018100 -0.000004 -0.000000 2.173902 -3.749181 0.085190 -3.933543 2.833798 -1.396299 4.843304 34.218824 -7.275478 -19.716249 4.363599 0.000005 -0.000015 -72.832766 -12.653952 -140.390413 -0.000005 0.000001 -10.306890 264.905363 -158.414626 192.747638 0.000008 0.000004 -12.404903 -517.978488 192.013147 -123.616247 -2.354803 -1.897200 5.063104 8.385017 10.894388 -31.938156 -4.375801 0.000005 -0.000015 69.840788 1.156966 162.236049 0.000002 0.000004 -10.004997 -268.069243 -168.023542 -227.268589 -0.000005 0.000003 -13.174892 -150.242838 -148.737614 179.788761 2.240599 0.386803 -2.614102 144.465195 -44.999639 113.530831 0.000001 -0.000003 -18.592896 -106.643432 38.435366 129.448955 -0.000002 0.000001 -18.765797 6.541825 30.724882 18.981833 -2.014896 -0.220899 -2.615898 -116.650724 -0.654241 -91.675960 -0.000001 0.000002 -18.633886 188.978617 23.406607 -176.449304 -0.000007 -0.000006 -18.285086 -8.388020 35.567671 -211.777802
-4.446999 25.868004 8.760715 -0.657845 -0.875106 10.719569 -0.204901 1.598099 7.917307 0.627280 4.859594 -4.749096 0.000000 -0.000001 3.404106 2.400204 -16.867362 -1.721164 -0.000000 0.000003 7.928599 -43.846826 14.752649 15.954222 0.000000 -0.000001 2.173895 -3.791978 0.090584 -3.987033 2.833798 -1.396297 4.843302 31.742263 -8.634108 -20.335847 4.363598 0.000005 -0.000013 -70.471781 -12.414302 -138.045213 -0.000005 0.000000 -10.306902 264.921837 -158.089851 192.905456 0.000007 0.000002 -12.404898 -518.238090 191.965595 -123.711678 -2.354805 -1.897201 5.063104 8.510471 10.965116 -31.982320 -4.375800 0.000003 -0.000018 71.099216 0.953129 162.127353 0.000004 0.000003 -10.004996 -266.719707 -167.758407 -227.079147 -0.000004 0.000001 -13.174900 -150.555865 -148.609330 179.593868 2.240599 0.386799 -2.614102 144.453324 -45.092704 113.446478 -0.000000 -0.000000 -18.592896 -106.625229 38.446896 129.437494 -0.000002 0.000000 -18.765799 6.522795 30.677887 19.166768 -2.014896 -0.220899 -2.615900 -116.604238 -0.647657 -91.610841 -0.000003 0.000003 -18.633884 189.004394 23.389062 -176.431928 -0.000005 -0.000007 -18.285086 -8.422912 35.557418 -211.731698
-4.447698 25.877104 8.753513 -0.683870 -1.027236 10.661225 -0.204900 1.598104 7.917307 0.689681 5.083865 -4.722815 -0.000000 0.000000 3.404099 2.428804 -16.924232 -1.721280 -0.000000 0.000000 7.928600 -43.855282 14.623693 15.905704 -0.000001 -0.000001 2.173900 -3.817609 0.084882 -4.043315 2.833797 -1.396301 4.843303 34.664334 -7.724328 -19.107012 4.363596 0.000006 -0.000016 -73.285997 -12.373566 -139.899951 -0.000005 0.000001 -10.306898 264.907384 -157.798161 193.040749 0.000009 0.000002 -12.404900 -518.446602 191.939326 -123.780937 -2.354808 -1.897200 5.063102 8.620475 11.054846 -32.085493 -4.375800 0.000003 -0.000012 72.646616 0.627627 162.080375 0.000002 0.000007 -10.004997 -265.076035 -167.476990 -227.040105 -0.000004 0.000004 -13.174891 -150.824128 -148.575165 179.586765 2.240602 0.386805 -2.614102 144.374804 -45.181404 113.292785 -0.000000 0.000001 -18.592894 -106.610988 38.454716 129.424353 -0.000002 0.000001 -18.765797 6.525158 30.652540 19.266666 -2.014896 -0.220892 -2.615900 -116.562492 -0.695379 -91.531167 -0.000002 0.000001 -18.633886 189.022166 23.379036 -176.425740 -0.000006 -0.000007 -18.285088 -8.456075 35.549912 -211.690525
-4.449599 25.890001 8.743809 -0.689645 -1.213736 10.584410 -0.204901 1.598103 7.917307 0.741491 5.369470 -4.694023 -0.000000 0.000001 3.404097 2.482784 -16.982138 -1.717549 -0.000000 -0.000001 7.928596 -43.896441 14.447110 15.871731 0.000001 -0.000003 2.173902 -3.834829 0.054882 -4.085663 2.833796 -1.396301 4.843298 34.725867 -7.643515 -18.707374 4.363593 0.000005 -0.000009 -73.299213 -12.179770 -139.926110 -0.000004 0.000003 -10.306900 264.797391 -157.516279 193.113026 0.000006 0.000002 -12.404895 -518.543427 191.913358 -123.800157 -2.354805 -1.897200 5.063101 8.686943 11.138890 -32.167746 -4.375799 0.000007 -0.000007 73.806922 0.405034 161.986078 -0.000002 0.000005 -10.005001 -265.739165 -169.305582 -227.530376 -0.000008 0.000007 -13.174894 -148.169315 -148.445760 179.810932 2.240600 0.386805 -2.614102 144.230509 -45.271819 113.073051 0.000000 -0.000001 -18.592892 -106.605319 38.465733 129.411389 -0.000004 0.000001 -18.765799 6.544619 30.655026 19.273986 -2.014897 -0.220897 -2.615897 -116.521484 -0.803603 -91.428393 -0.000002 0.000003 -18.633883 189.029297 23.380509 -176.435015 -0.000005 -0.000007 -18.285086 -8.485573 35.546425 -211.658123
-4.453498 25.908707 8.728607 -0.693332 -1.386286 10.511526 -0.204901 1.598097 7.917312 0.793726 5.644613 -4.703460 -0.000000 -0.000005 3.404102 2.562948 -17.025432 -1.707272 -0.000000 -0.000002 7.928597 -43.979424 14.213783 15.877897 -0.000001 -0.000002 2.173895 -3.861120 0.000283 -4.097450 2.833797 -1.396304 4.843298 34.523881 -7.349292 -18.229876 4.363595 0.000005 -0.000008 -72.986527 -11.911266 -140.075254 -0.000005 0.000004 -10.306886 264.728652 -157.273165 193.171820 0.000013 0.000003 -12.404902 -518.595882 191.942960 -123.703509 -2.354808 -1.897202 5.063106 8.755023 11.234206 -32.311566 -4.375800 0.000002 -0.000011 74.585597 0.363270 161.896944 -0.000001 0.000005 -10.004993 -265.260177 -169.269313 -227.718452 -0.000007 0.000001 -13.174892 -147.865454 -148.402744 179.974815 2.240599 0.386800 -2.614101 144.079712 -45.313958 112.862975 0.000000 -0.000001 -18.592896 -106.633685 38.484417 129.409354 -0.000001 0.000002 -18.765799 6.581338 30.690150 19.187209 -2.014895 -0.220895 -2.615894 -116.470312 -0.932757 -91.344703 -0.000002 0.000005 -18.633884 189.025799 23.396109 -176.468538 -0.000005 -0.000006 -18.285084 -8.512204 35.548696 -211.634040
-4.459699 25.934904 8.707615 -0.679172 -1.583214 10.420567 -0.204901 1.598100 7.917309 0.836779 5.981721 -4.711018 -0.000000 0.000004 3.404100 2.668372 -17.067827 -1.692525 -0.000000 -0.000006 7.928603 -44.066991 13.940187 15.918326 0.000002 -0.000001 2.173897 -3.904517 -0.085482 -4.095360 2.833796 -1.396302 4.843303 34.093801 -6.888233 -17.700242 4.363592 0.000006 -0.000006 -72.394152 -11.656325 -140.276649 -0.000004 0.000004 -10.306888 264.742039 -156.946054 193.287838 0.000012 0.000000 -12.404901 -518.705766 191.913713 -123.609690 -2.354806 -1.897202 5.063105 8.827409 11.339112 -32.406656 -4.375800 0.000003 -0.000003 75.020346 0.372995 161.762184 0.000000 0.000007 -10.005001 -265.232856 -169.234452 -227.970582 -0.000004 0.000005 -13.174898 -147.354925 -148.380478 180.246848 2.240600 0.386802 -2.614104 143.871897 -45.317967 112.605675 -0.000001 -0.000001 -18.592896 -106.715613 38.519163 129.425869 -0.000003 -0.000000 -18.765799 6.622160 30.752524 19.024911 -2.014896 -0.220895 -2.615900 -116.417433 -1.108637 -91.254353 -0.000003 0.000003 -18.633886 189.016743 23.426335 -176.524941 -0.000006 -0.000007 -18.285086 -8.541506 35.556322 -211.613180
